<svg width="74" height="19" viewBox="0 0 74 19" fill="none" xmlns="http://www.w3.org/2000/svg">
<path d="M12.4105 12.8441L16.3332 14.8764C15.513 15.9466 14.4848 16.8062 13.2485 17.4551C12.0123 18.1041 10.6631 18.4286 9.20101 18.4286C7.5606 18.4286 6.06284 18.0244 4.70773 17.216C3.3645 16.4077 2.28872 15.3261 1.48041 13.9713C0.683981 12.605 0.285767 11.0965 0.285767 9.44565C0.285767 8.19328 0.517563 7.02629 0.981156 5.9447C1.44475 4.85172 2.0807 3.89536 2.88902 3.07563C3.70922 2.24451 4.66018 1.59555 5.7419 1.12876C6.82361 0.661968 7.97665 0.428572 9.20101 0.428572C10.6631 0.428572 12.0123 0.753049 13.2485 1.402C14.4848 2.05096 15.513 2.92193 16.3332 4.01491L12.4105 6.03009C11.9945 5.57468 11.5011 5.22174 10.9306 4.97127C10.3719 4.72079 9.79536 4.59555 9.20101 4.59555C8.34515 4.59555 7.57249 4.82326 6.88305 5.27867C6.1936 5.72269 5.6468 6.31472 5.24264 7.05476C4.83848 7.78341 4.6364 8.58037 4.6364 9.44565C4.6364 10.2995 4.83848 11.0965 5.24264 11.8365C5.6468 12.5652 6.1936 13.1515 6.88305 13.5956C7.57249 14.0396 8.34515 14.2616 9.20101 14.2616C9.81913 14.2616 10.4075 14.1364 10.9662 13.8859C11.5249 13.624 12.0063 13.2768 12.4105 12.8441Z" fill="white"/>
<path d="M26.8225 18.4286C25.1821 18.4286 23.6844 18.0244 22.3293 17.216C20.986 16.4077 19.9103 15.3261 19.1019 13.9713C18.3055 12.605 17.9073 11.0965 17.9073 9.44565C17.9073 8.19328 18.1391 7.02629 18.6027 5.9447C19.0663 4.85172 19.7022 3.89536 20.5105 3.07563C21.3308 2.24451 22.2817 1.59555 23.3634 1.12876C24.4451 0.661968 25.5982 0.428572 26.8225 0.428572C28.4629 0.428572 29.9548 0.832746 31.298 1.6411C32.6531 2.44944 33.7289 3.53673 34.5253 4.90295C35.3336 6.26918 35.7378 7.78341 35.7378 9.44565C35.7378 10.6866 35.506 11.8479 35.0424 12.9295C34.5788 14.0111 33.9369 14.9675 33.1167 15.7986C32.3084 16.6183 31.3634 17.2616 30.2817 17.7284C29.2118 18.1952 28.0588 18.4286 26.8225 18.4286ZM26.8225 14.2616C27.6903 14.2616 28.4689 14.0396 29.1583 13.5956C29.8478 13.1515 30.3886 12.5652 30.7809 11.8365C31.1851 11.1079 31.3871 10.3109 31.3871 9.44565C31.3871 8.5576 31.1791 7.74925 30.7631 7.0206C30.3589 6.28056 29.8062 5.69423 29.1048 5.26159C28.4154 4.81756 27.6546 4.59555 26.8225 4.59555C25.9667 4.59555 25.194 4.81756 24.5046 5.26159C23.8151 5.70561 23.2683 6.29764 22.8642 7.03768C22.46 7.77772 22.2579 8.58037 22.2579 9.44565C22.2579 10.3451 22.466 11.1591 22.882 11.8878C23.298 12.6164 23.8508 13.1971 24.5402 13.6297C25.2416 14.051 26.0023 14.2616 26.8225 14.2616Z" fill="white"/>
<path d="M49.6386 12.8441L53.5613 14.8764C52.7411 15.9466 51.7129 16.8062 50.4766 17.4551C49.2404 18.1041 47.8912 18.4286 46.4291 18.4286C44.7887 18.4286 43.2909 18.0244 41.9358 17.216C40.5926 16.4077 39.5168 15.3261 38.7085 13.9713C37.9121 12.605 37.5139 11.0965 37.5139 9.44565C37.5139 8.19328 37.7457 7.02629 38.2093 5.9447C38.6728 4.85172 39.3088 3.89536 40.1171 3.07563C40.9373 2.24451 41.8883 1.59555 42.97 1.12876C44.0517 0.661968 45.2047 0.428572 46.4291 0.428572C47.8912 0.428572 49.2404 0.753049 50.4766 1.402C51.7129 2.05096 52.7411 2.92193 53.5613 4.01491L49.6386 6.03009C49.2225 5.57468 48.7292 5.22174 48.1587 4.97127C47.6 4.72079 47.0235 4.59555 46.4291 4.59555C45.5732 4.59555 44.8006 4.82326 44.1111 5.27867C43.4217 5.72269 42.8749 6.31472 42.4707 7.05476C42.0666 7.78341 41.8645 8.58037 41.8645 9.44565C41.8645 10.2995 42.0666 11.0965 42.4707 11.8365C42.8749 12.5652 43.4217 13.1515 44.1111 13.5956C44.8006 14.0396 45.5732 14.2616 46.4291 14.2616C47.0472 14.2616 47.6356 14.1364 48.1943 13.8859C48.753 13.624 49.2344 13.2768 49.6386 12.8441Z" fill="white"/>
<path d="M69.6494 0.90675H74.0001V17.9845H69.6494L69.4533 15.8669C68.9659 16.6297 68.3181 17.2502 67.5098 17.7284C66.7133 18.1952 65.7683 18.4286 64.6747 18.4286C63.3553 18.4286 62.119 18.1895 60.966 17.7113C59.8129 17.2331 58.7966 16.5728 57.917 15.7303C57.0492 14.8878 56.3657 13.9143 55.8664 12.81C55.3791 11.7056 55.1354 10.5216 55.1354 9.25779C55.1354 8.03958 55.3672 6.89536 55.8308 5.82516C56.3063 4.75495 56.966 3.81567 57.81 3.00732C58.6539 2.19897 59.6287 1.56709 60.7342 1.11168C61.8397 0.656275 63.0284 0.428572 64.3003 0.428572C65.4771 0.428572 66.5291 0.679046 67.4563 1.17999C68.3953 1.68094 69.1918 2.31851 69.8456 3.09271L69.6494 0.90675ZM64.5677 14.4153C65.4949 14.4153 66.3151 14.1933 67.0283 13.7493C67.7416 13.3052 68.3002 12.7075 68.7044 11.9561C69.1086 11.1933 69.3106 10.3565 69.3106 9.44565C69.3106 8.52345 69.1086 7.68664 68.7044 6.93521C68.3002 6.1724 67.7356 5.56899 67.0105 5.12497C66.2973 4.68094 65.483 4.45893 64.5677 4.45893C63.6524 4.45893 62.8144 4.68664 62.0536 5.14204C61.3047 5.58607 60.7045 6.18379 60.2527 6.93521C59.8129 7.68664 59.593 8.52345 59.593 9.44565C59.593 10.3679 59.8189 11.2047 60.2706 11.9561C60.7223 12.7075 61.3226 13.3052 62.0715 13.7493C62.8322 14.1933 63.6643 14.4153 64.5677 14.4153Z" fill="white"/>
</svg>
