<svg width="120" height="90" viewBox="0 0 120 90" fill="none" xmlns="http://www.w3.org/2000/svg">
<path d="M10.5514 12.6207V30.1335C10.5514 36.7328 15.2161 41.1032 21.3563 41.1032C22.7545 41.1242 24.1425 40.8628 25.4372 40.3347C26.732 39.8065 27.9068 39.0225 28.8913 38.0296V40.6335H33.139V12.6172H28.8563V29.9092C28.8563 34.3427 25.8072 37.3392 21.8645 37.3462C17.8727 37.3392 14.8656 34.4233 14.8656 29.9092V12.6172L10.5514 12.6207ZM36.3528 12.6207V40.6335H40.4287V38.0681C41.4034 39.0428 42.5607 39.8156 43.8344 40.3424C45.1082 40.8692 46.4733 41.1396 47.8516 41.1382C49.2752 41.1747 50.6916 40.9259 52.0174 40.4063C53.3432 39.8868 54.5516 39.1071 55.5713 38.1131C56.5911 37.1192 57.4015 35.9312 57.9549 34.6191C58.5082 33.3071 58.7933 31.8975 58.7933 30.4735C58.7933 29.0495 58.5082 27.6399 57.9549 26.3279C57.4015 25.0158 56.5911 23.8278 55.5713 22.8339C54.5516 21.8399 53.3432 21.0602 52.0174 20.5407C50.6916 20.0211 49.2752 19.7723 47.8516 19.8088C46.4791 19.8078 45.1199 20.0786 43.8525 20.6056C42.5851 21.1325 41.4346 21.9051 40.4673 22.8789V12.6207H36.3528ZM71 19.8263C69.6047 19.8203 68.222 20.09 66.9313 20.6201C65.6407 21.1501 64.4674 21.9299 63.479 22.9147C62.4906 23.8995 61.7065 25.0699 61.1718 26.3587C60.6372 27.6474 60.3624 29.0292 60.3633 30.4244C60.3633 36.5121 65.1752 41.0681 71.4136 41.0681C73.146 41.1035 74.8621 40.727 76.4207 39.9697C77.9793 39.2123 79.3357 38.0958 80.3785 36.7118L77.3995 34.5459C76.7211 35.4957 75.8214 36.2658 74.7785 36.7898C73.7355 37.3137 72.5805 37.5757 71.4136 37.5529C69.7588 37.5735 68.1516 36.9993 66.8845 35.9348C65.6174 34.8703 64.7745 33.3862 64.5093 31.7527H81.3914V30.4244C81.3914 24.3473 76.9965 19.8263 71.0035 19.8263H71ZM92.5993 20.0576C91.6318 20.0492 90.6788 20.2922 89.8334 20.7628C88.9881 21.2334 88.2794 21.9154 87.7769 22.7422V20.2223H83.7009V40.6335H87.8154V29.0261C87.8154 25.8649 89.7745 23.8251 92.4661 23.8251H94.201V20.0646L92.5993 20.0576ZM70.8598 23.366C72.3711 23.3455 73.8418 23.8553 75.0161 24.8068C76.1904 25.7583 76.9941 27.0913 77.2874 28.574H64.6075C64.8949 27.1208 65.6729 25.8105 66.8111 24.8624C67.9493 23.9143 69.3786 23.3861 70.8598 23.366ZM47.5222 23.387C48.4523 23.3866 49.3735 23.5693 50.233 23.9249C51.0925 24.2804 51.8736 24.8017 52.5316 25.4591C53.1897 26.1165 53.7118 26.8971 54.0681 27.7562C54.4245 28.6154 54.6082 29.5363 54.6086 30.4665C54.6091 31.3966 54.4264 32.3178 54.0708 33.1773C53.7153 34.0368 53.194 34.8179 52.5366 35.4759C51.8792 36.1339 51.0986 36.6561 50.2395 37.0124C49.3803 37.3688 48.4594 37.5525 47.5292 37.5529C45.6631 37.5375 43.8789 36.784 42.5666 35.4571C41.2513 34.1322 40.5142 32.3404 40.5164 30.4735C40.5132 28.6071 41.2491 26.8153 42.5631 25.4899C43.8734 24.1613 45.6563 23.4053 47.5222 23.387ZM10.5514 48.095V76.0308H30.6051V71.2399H15.9696V64.3357H30.2126V59.727H15.9696V52.8754H30.6051V48.0915L10.5514 48.095ZM61.5794 49.5319V55.4373H57.5491V60.1265H61.5935V71.1417C61.5935 73.9209 63.5981 76.1219 67.2009 76.1219H72.9591L72.9381 71.4326H68.9393C67.7196 71.4326 66.9346 70.9069 66.9346 69.8064V60.1055H72.9346V55.4373H66.9556V49.5284L61.5794 49.5319ZM43.0152 54.8835C41.5743 54.8797 40.147 55.1622 38.8162 55.7147C37.4854 56.2672 36.2777 57.0786 35.2632 58.1018C34.2487 59.1251 33.4477 60.3397 32.9067 61.6752C32.3657 63.0107 32.0954 64.4404 32.1117 65.8812C32.1279 67.322 32.4304 68.7452 33.0014 70.0682C33.5724 71.3911 34.4006 72.5874 35.4379 73.5874C36.4752 74.5875 37.7009 75.3715 39.0438 75.8939C40.3868 76.4162 41.8201 76.6664 43.2605 76.63C45.6988 76.6555 48.0696 75.8301 49.965 74.2959V76.1604H55.2815V55.4373H49.993V57.2807C48.0978 55.7222 45.7178 54.8743 43.264 54.8835H43.0187H43.0152ZM84.2687 54.9081C78.7138 54.9081 74.8061 57.1651 74.8061 61.5179C74.8061 64.5319 76.9545 66.498 81.5911 67.4583L86.6659 68.6078C88.6636 68.9934 89.1963 69.5156 89.1963 70.3251C89.1963 71.6254 87.6612 72.4385 85.2465 72.4385C82.1764 72.4385 80.4171 71.7726 79.7337 69.4665H74.361C75.132 73.7807 78.4159 76.6511 85.0467 76.6511H85.0537C91.1939 76.6511 94.6636 73.7807 94.6636 69.8064C94.6636 66.9817 92.6133 64.8719 88.3236 63.9642L83.7886 63.0529C81.1565 62.5763 80.326 62.0927 80.326 61.1394C80.326 59.8882 81.5911 59.1242 83.9358 59.1242C86.4661 59.1242 88.3236 59.7971 88.8598 62.0927H94.1799C93.8785 57.7854 90.7103 54.9081 84.2722 54.9081H84.2687ZM43.7301 59.2889C47.2699 59.324 50.1051 62.2223 50.0631 65.7621C50.0641 66.5985 49.8988 67.4268 49.5767 68.1987C49.2546 68.9707 48.7822 69.6709 48.187 70.2586C47.5918 70.8463 46.8857 71.3097 46.1097 71.622C45.3337 71.9343 44.5034 72.0891 43.6671 72.0775C41.9717 72.0691 40.349 71.3876 39.1561 70.1828C37.9632 68.9781 37.2977 67.3488 37.3061 65.6534C37.3144 63.958 37.996 62.3354 39.2007 61.1425C40.4055 59.9495 42.0347 59.2841 43.7301 59.2924V59.2889Z" fill="#757B8A"/>
</svg>
